<svg width="22" height="18" viewBox="0 0 22 18" fill="none" xmlns="http://www.w3.org/2000/svg">
<path d="M2.39037 16C2.12637 16 1.91211 15.776 1.91211 15.5V9.5C1.91211 9.224 2.12637 9 2.39037 9H5.25994C5.52394 9 5.7382 9.224 5.7382 9.5C5.7382 9.776 5.52394 10 5.25994 10H2.86863V15.5C2.86863 15.776 2.65437 16 2.39037 16Z" fill="#000606"/>
<path d="M4.30341 13H2.39037C2.12637 13 1.91211 12.776 1.91211 12.5C1.91211 12.224 2.12637 12 2.39037 12H4.30341C4.56741 12 4.78167 12.224 4.78167 12.5C4.78167 12.776 4.56741 13 4.30341 13Z" fill="#000606"/>
<path d="M10.0431 16C9.9207 16 9.79827 15.951 9.70453 15.854L7.65183 13.707V15.5C7.65183 15.776 7.43757 16 7.17357 16C6.90957 16 6.69531 15.776 6.69531 15.5V12.503C6.69531 12.501 6.69531 12.498 6.69531 12.496V9.5C6.69531 9.224 6.90957 9 7.17357 9H8.60836C9.6634 9 10.5214 9.897 10.5214 11C10.5214 12.103 9.6634 13 8.60836 13H8.32809L10.3808 15.146C10.5673 15.341 10.5673 15.658 10.3808 15.853C10.288 15.951 10.1656 16 10.0431 16ZM7.65183 12H8.60836C9.13636 12 9.56488 11.551 9.56488 11C9.56488 10.449 9.13636 10 8.60836 10H7.65183V12Z" fill="#000606"/>
<path d="M14.8263 16H11.9568C11.6928 16 11.4785 15.776 11.4785 15.5V9.5C11.4785 9.224 11.6928 9 11.9568 9H14.8263C15.0903 9 15.3046 9.224 15.3046 9.5C15.3046 9.776 15.0903 10 14.8263 10H12.435V15H14.8263C15.0903 15 15.3046 15.224 15.3046 15.5C15.3046 15.776 15.0903 16 14.8263 16Z" fill="#000606"/>
<path d="M13.8698 13H11.9568C11.6928 13 11.4785 12.776 11.4785 12.5C11.4785 12.224 11.6928 12 11.9568 12H13.8698C14.1338 12 14.3481 12.224 14.3481 12.5C14.3481 12.776 14.1338 13 13.8698 13Z" fill="#000606"/>
<path d="M19.6095 16H16.74C16.476 16 16.2617 15.776 16.2617 15.5V9.5C16.2617 9.224 16.476 9 16.74 9H19.6095C19.8735 9 20.0878 9.224 20.0878 9.5C20.0878 9.776 19.8735 10 19.6095 10H17.2182V15H19.6095C19.8735 15 20.0878 15.224 20.0878 15.5C20.0878 15.776 19.8735 16 19.6095 16Z" fill="#000606"/>
<path d="M18.653 13H16.74C16.476 13 16.2617 12.776 16.2617 12.5C16.2617 12.224 16.476 12 16.74 12H18.653C18.917 12 19.1313 12.224 19.1313 12.5C19.1313 12.776 18.917 13 18.653 13Z" fill="#000606"/>
<path d="M19.6087 18H2.3913C1.07226 18 0 16.878 0 15.5V9.5C0 8.122 1.07226 7 2.3913 7H19.6087C20.9277 7 22 8.122 22 9.5V15.5C22 16.878 20.9277 18 19.6087 18ZM2.3913 8C1.60026 8 0.956522 8.673 0.956522 9.5V15.5C0.956522 16.327 1.60026 17 2.3913 17H19.6087C20.3997 17 21.0435 16.327 21.0435 15.5V9.5C21.0435 8.673 20.3997 8 19.6087 8H2.3913Z" fill="#000606"/>
<path d="M11.0007 5C9.68164 5 8.60938 3.878 8.60938 2.5C8.60938 1.122 9.68164 0 11.0007 0C12.3197 0 13.392 1.122 13.392 2.5C13.392 3.878 12.3197 5 11.0007 5ZM11.0007 1C10.2096 1 9.5659 1.673 9.5659 2.5C9.5659 3.327 10.2096 4 11.0007 4C11.7917 4 12.4355 3.327 12.4355 2.5C12.4355 1.673 11.7917 1 11.0007 1Z" fill="#000606"/>
<path d="M4.30467 8.00023C4.18224 8.00023 4.0598 7.95123 3.96606 7.85423C3.77954 7.65923 3.77954 7.34223 3.96606 7.14723L8.74867 2.14723C8.93519 1.95223 9.23841 1.95223 9.42493 2.14723C9.61145 2.34223 9.61145 2.65923 9.42493 2.85423L4.64232 7.85423C4.54954 7.95123 4.42711 8.00023 4.30467 8.00023Z" fill="#000606"/>
<path d="M17.6947 8.00023C17.5723 8.00023 17.4498 7.95123 17.3561 7.85423L12.5735 2.85423C12.387 2.65923 12.387 2.34223 12.5735 2.14723C12.76 1.95223 13.0632 1.95223 13.2497 2.14723L18.0324 7.14723C18.2189 7.34223 18.2189 7.65923 18.0324 7.85423C17.9396 7.95123 17.8171 8.00023 17.6947 8.00023Z" fill="#000606"/>
</svg>
